<svg xmlns="http://www.w3.org/2000/svg"><symbol id="cart" viewBox="0 0 500 500"><path fill="none" stroke="#83c991" stroke-miterlimit="10" stroke-width="36" d="M170.1 327.4h179.6a16.7 16.7 0 0 0 16-12.2l36.4-129.5a16.6 16.6 0 0 0-16.1-21.1H111.8L154 315.2a16.8 16.8 0 0 0 16.1 12.2z"/><path fill="none" stroke="#83c991" stroke-linecap="round" stroke-miterlimit="10" stroke-width="36" d="M98.1 113.3l17.4 60.3"/><circle cx="185.1" cy="382.4" r="21.1" fill="#83c991"/><circle cx="334.7" cy="382.4" r="21.1" fill="#83c991"/></symbol><symbol id="closemenu" viewBox="0 0 500 500"><path fill="none" stroke="#fff" stroke-linecap="round" stroke-width="36.17" d="M156.2 156.2l187.6 187.6m-187.6 0l187.6-187.6"/></symbol><symbol id="fb" viewBox="0 0 500 500"><path fill="#fff" d="M448.4 251.2c0-109.6-88.8-198.4-198.4-198.4S51.6 141.6 51.6 251.2c0 99 72.5 181.1 167.4 196V308.6h-50.4v-57.4H219v-43.7c0-49.7 29.6-77.2 74.9-77.2 21.8 0 44.5 3.9 44.5 3.9V183h-25.1c-24.6 0-32.3 15.3-32.3 31v37.2h55l-8.8 57.4H281v138.6c94.9-14.9 167.4-97 167.4-196z"/></symbol><symbol id="ig" viewBox="0 0 500 500"><path fill="#fff" d="M296.8 155.8c-12.2-.6-15.9-.7-46.8-.7s-34.6.1-46.8.7c-31.4 1.4-46 16.3-47.4 47.4-.6 12.2-.7 15.9-.7 46.8s.1 34.6.7 46.8c1.4 31.1 16 46 47.4 47.4 12.2.6 15.9.7 46.8.7s34.6-.1 46.8-.7c31.4-1.4 46-16.3 47.4-47.4.6-12.2.7-15.9.7-46.8s-.1-34.6-.7-46.8c-1.4-31.1-16-46-47.4-47.4zM250 309.5a59.5 59.5 0 1 1 59.5-59.5 59.6 59.6 0 0 1-59.5 59.5zm61.8-107.4a13.9 13.9 0 1 1 13.9-13.9 13.9 13.9 0 0 1-13.9 13.9zM288.6 250a38.6 38.6 0 1 1-38.6-38.6 38.6 38.6 0 0 1 38.6 38.6zM250 51.6C140.4 51.6 51.6 140.4 51.6 250S140.4 448.4 250 448.4 448.4 359.6 448.4 250 359.6 51.6 250 51.6zm115.1 246.1c-1.9 42.1-25.4 65.4-67.4 67.4-12.3.5-16.3.7-47.7.7s-35.4-.2-47.7-.7c-42.1-2-65.4-25.3-67.4-67.4-.5-12.3-.7-16.3-.7-47.7s.2-35.4.7-47.7c2-42.1 25.3-65.4 67.4-67.3 12.3-.6 16.3-.8 47.7-.8s35.4.2 47.7.8c42.1 1.9 65.5 25.3 67.4 67.3.5 12.3.7 16.3.7 47.7s-.2 35.4-.7 47.7z"/></symbol><symbol id="leaf-1" viewBox="0 0 500 500"><g fill="#76b384"><path d="M358.7 148.8c-6.7 3-12.5 5.6-18.6 15.1s-5.9 15.9-5.8 23.2.2 16.2-7.2 27.7-15.1 15.1-22 18.2a37.2 37.2 0 0 0-14.5 9.6c20.8 12.7 53.8 3.4 76.9-22.9 24.9-28.3 28.9-65.5 9-83.3a45.2 45.2 0 0 1-17.8 12.4z"/><path d="M284.2 237.6a45.2 45.2 0 0 1 17.5-12.1c6.7-3 12.5-5.6 18.5-15.1s6-15.8 5.9-23.2-.2-16.1 7.1-27.6 15.2-15.1 22.1-18.2a38.6 38.6 0 0 0 14.5-9.7c-20.8-11.3-52.7-1.8-75.2 23.8-24.4 27.7-28.8 63.8-10.4 82.1z"/></g><g fill="#82c890"><path d="M129.9 234.6c4.3 9.7 8.1 18.1 21.9 26.9s23 8.6 33.7 8.5 23.4-.4 40.1 10.3 21.9 22 26.4 32c3.4 7.6 6.4 14.3 14 21 18.4-30.1 4.8-78-33.3-111.5-41-36.2-95-42-120.9-13.1 10.4 8.8 14.4 17.8 18.1 25.9z"/><path d="M258.7 342.7c-9.9-8.7-13.9-17.5-17.5-25.5-4.4-9.7-8.2-18.1-21.9-26.9s-23-8.6-33.7-8.5-23.4.4-40.2-10.3-21.9-22-26.4-32.1c-3.3-7.5-6.4-14.2-14-21-16.4 30.2-2.5 76.5 34.6 109.2 40.1 35.3 92.6 41.7 119.1 15.1z"/></g><g fill="#82c890"><path d="M373.8 281.9c-6 2.9-11.3 5.3-16.6 14s-5.2 14.5-5 21.2a39.5 39.5 0 0 1-6 25.3 40.4 40.4 0 0 1-19.8 16.9 34.3 34.3 0 0 0-13 8.9c19.1 11.3 48.9 2.2 69.5-22 22.2-26.1 25.3-60 6.9-75.9a41 41 0 0 1-16 11.6z"/><path d="M307.5 363.7a42.7 42.7 0 0 1 15.7-11.2c6.1-2.8 11.3-5.3 16.6-14s5.2-14.5 5-21.2a42.2 42.2 0 0 1 25.8-42.1 36.1 36.1 0 0 0 13.1-9c-19.1-10-48-.8-68 22.8-21.7 25.5-25.2 58.4-8.2 74.7z"/></g></symbol><symbol id="leaf" viewBox="0 0 500 500"><path fill="#82c890" d="M225.8 156.3a180.6 180.6 0 0 0-19.8-13.9 206.9 206.9 0 0 0-72.4-27.1 205.7 205.7 0 0 0-30.8 70.9 177.3 177.3 0 0 0-3.8 23.9c-3.1 40.6 13.2 108.6 65.4 131.9 7.7 3.4 37.3 15.3 66.6 2.8s41.3-41.9 44.2-49.9c19.5-53.6-18-112.7-49.4-138.6zm-12 66.9l14.9 4.3-15.7 55 17 40-14.3 6.1-17-40-50.5-27 7.3-13.6 33.6 17.9-16.8-39.7-50.6-27 7.3-13.6 33.6 17.9-18.4-43.4 14.2-6.1 18.5 43.5 10.4-36.7 14.9 4.3-15.7 55.1 16.8 39.6z"/><path fill="#76b384" d="M400.5 311.8a107.7 107.7 0 0 0 .8-15 126.4 126.4 0 0 0-9.5-47 125.3 125.3 0 0 0-47.4 7.1 93.9 93.9 0 0 0-13.8 5.9c-22.5 11.6-52.9 42.6-48 77.7.8 5.2 4.3 24.6 20.4 36s35.7 7.9 40.8 6.8c34.7-7.3 53.4-46.5 56.7-71.5zm-39.1 15.6l2.6 9.3-34.1 9.8-15.5 22.1-7.8-5.5L322 341l-2.4-35.5 9.6-.6 1.6 23.6 15.4-21.9-2.5-35.5 9.6-.6 1.6 23.5 16.8-23.9 7.9 5.5-16.8 24 22.7-6.6 2.7 9.3-34.2 9.8-15.3 21.9z"/></symbol><symbol id="water" viewBox="0 0 500 500"><path fill="#82c890" d="M430.5 197.8c-16.7 0-25.5-7.5-32.6-13.6s-9.9-8.5-19-8.5-13.1 3.4-19 8.5-15.9 13.6-32.6 13.6-25.4-7.5-32.5-13.6-9.9-8.5-19-8.5-13.1 3.4-19.1 8.5-15.8 13.6-32.5 13.6-25.4-7.5-32.5-13.6-9.9-8.5-19-8.5-13.1 3.4-19.1 8.5-15.8 13.6-32.5 13.6-25.5-7.5-32.5-13.6-10-8.5-19.1-8.5a11.7 11.7 0 0 1 0-23.3c16.7 0 25.5 7.5 32.6 13.6s9.9 8.5 19 8.5 13.1-3.4 19-8.5 15.9-13.6 32.6-13.6 25.4 7.5 32.5 13.6 9.9 8.5 19 8.5 13.1-3.4 19.1-8.5 15.8-13.6 32.5-13.6 25.4 7.5 32.5 13.6 9.9 8.5 19 8.5 13.1-3.4 19.1-8.5 15.8-13.6 32.5-13.6 25.5 7.5 32.5 13.6 10 8.5 19.1 8.5a11.7 11.7 0 0 1 0 23.3z"/><path fill="#76b384" d="M430.5 272.7c-16.7 0-25.5-7.5-32.6-13.6s-9.9-8.5-19-8.5-13.1 3.4-19 8.5-15.9 13.6-32.6 13.6-25.4-7.5-32.5-13.6-9.9-8.5-19-8.5-13.1 3.4-19.1 8.5-15.8 13.6-32.5 13.6-25.4-7.5-32.5-13.6-9.9-8.5-19-8.5-13.1 3.4-19.1 8.5-15.8 13.6-32.5 13.6-25.5-7.5-32.5-13.6-10-8.5-19.1-8.5a11.7 11.7 0 0 1 0-23.3c16.7 0 25.5 7.5 32.6 13.6s9.9 8.5 19 8.5 13.1-3.4 19-8.5 15.9-13.6 32.6-13.6 25.4 7.5 32.5 13.6 9.9 8.5 19 8.5 13.1-3.4 19.1-8.5 15.8-13.6 32.5-13.6 25.4 7.5 32.5 13.6 9.9 8.5 19 8.5 13.1-3.4 19.1-8.5 15.8-13.6 32.5-13.6 25.5 7.5 32.5 13.6 10 8.5 19.1 8.5a11.7 11.7 0 0 1 0 23.3z"/><path fill="#82c890" d="M430.5 347.6c-16.7 0-25.5-7.5-32.6-13.6s-9.9-8.5-19-8.5-13.1 3.4-19 8.5-15.9 13.6-32.6 13.6-25.4-7.5-32.5-13.6-9.9-8.5-19-8.5-13.1 3.4-19.1 8.5-15.8 13.6-32.5 13.6-25.4-7.5-32.5-13.6-9.9-8.5-19-8.5-13.1 3.4-19.1 8.5-15.8 13.6-32.5 13.6-25.5-7.5-32.5-13.6-10-8.5-19.1-8.5a11.7 11.7 0 0 1 0-23.3c16.7 0 25.5 7.5 32.6 13.6s9.9 8.5 19 8.5 13.1-3.4 19-8.5 15.9-13.6 32.6-13.6 25.4 7.5 32.5 13.6 9.9 8.5 19 8.5 13.1-3.4 19.1-8.5 15.8-13.6 32.5-13.6 25.4 7.5 32.5 13.6 9.9 8.5 19 8.5 13.1-3.4 19.1-8.5 15.8-13.6 32.5-13.6 25.5 7.5 32.5 13.6 10 8.5 19.1 8.5a11.7 11.7 0 0 1 0 23.3z"/></symbol><symbol id="openmenu" viewBox="0 0 500 500"><path fill="none" stroke="#fff" stroke-linecap="round" stroke-width="36.17" d="M117.4 154.9h204.9M117.4 250h265.2m-265.2 95.1h144.7"/></symbol><symbol id="yelp" viewBox="0 0 500 500"><path fill="#fff" d="M250 51.6C140.4 51.6 51.6 140.4 51.6 250S140.4 448.4 250 448.4 448.4 359.6 448.4 250 359.6 51.6 250 51.6zM138.9 316.5v.5c-4-.1-7.6-2.6-9.8-6.6s-2.5-7.8-3.2-13.7c-1.9-17.8.4-44.7 5.7-53.2 2.5-3.9 6.2-6 10.2-5.9s5.1.9 58 22.6l15.4 6.2c5.6 2 9 7.8 8.7 14.4s-4.1 11.3-9.5 12.7l-22 7c-49.3 15.8-50.9 16.2-53.5 16zm112.4 33.3l-.4.3c-.1 51.7-.2 53.4-1.1 55.8-1.4 3.9-4.7 6.5-9.3 7.3-13.2 2.2-54.4-13-62.9-23.1a13.4 13.4 0 0 1-2.9-6.8 9.3 9.3 0 0 1 .6-4.7c1-2.7 2.5-4.8 39.4-48.1l10.9-12.9c3.7-4.8 10.3-6.2 16.4-3.8s9.7 7.4 9.3 13zM242 242c-2.7.8-10.8 3.3-20.8-12.9 0 0-67.5-106.3-69.1-109.5s.2-7.9 3.5-11.3c10-10.4 64.6-25.6 78.9-22.2 4.6 1.2 7.8 4.2 8.9 8.3s7.5 103.2 8.5 125.3c.9 18.9-7.2 21.5-9.9 22.3zm34.3 21.1c-3.5-5.2-3.4-11.5.2-15.8l13.6-18.6c30-40.9 31.7-43 33.7-44.4 3.5-2.4 7.8-2.5 11.9-.5 11.9 5.8 36 41.5 37.4 55.2v.5a11.4 11.4 0 0 1-4.7 10.7c-2.3 1.4-4.3 2.3-60.2 15.8-8.8 2.3-13.7 3.5-16.6 4.6l.4-.5c-5.6 1.7-11.7-1-15.2-6.5zm67.6 151.3zm30.9-79.1c-2 13.3-29 47.7-41.5 52.7-4.3 1.7-8.4 1.3-11.6-1.3s-4.3-5-33.6-52.4l-8.6-14.1c-3.4-5.1-2.7-11.8 1.4-16.8s10-6.8 15.2-4.8l21.9 7.2c49.1 16.2 50.7 16.8 52.8 18.4s4.6 6.5 3.9 11.1z"/></symbol><symbol id="thunder" viewBox="0 0 500 500"><path fill="#82c890" d="M282.2 122.2L146.5 258.4a8.2 8.2 0 0 0 .1 11.5 7.9 7.9 0 0 0 5.7 2.3h83.2a8.2 8.2 0 0 1 6.8 12.6l-53.9 82.9a8.2 8.2 0 0 0 12.4 10.4l152.4-141.9a8 8 0 0 0 .4-11.4 7.7 7.7 0 0 0-5.8-2.6l-84.4-.9a8 8 0 0 1-8-8.2 8.5 8.5 0 0 1 .8-3.5l39-78.1a8.1 8.1 0 0 0-13-9.3z"/></symbol><symbol id="twt" viewBox="0 0 500 500"><path fill="#fff" d="M250 51.6C140.4 51.6 51.6 140.4 51.6 250S140.4 448.4 250 448.4 448.4 359.6 448.4 250 359.6 51.6 250 51.6zm100.3 159.5c3 66.8-46.8 141.2-135 141.2a134.2 134.2 0 0 1-72.8-21.3 95.1 95.1 0 0 0 70.3-19.7 47.6 47.6 0 0 1-44.4-33 45.6 45.6 0 0 0 21.5-.8c-22.8-4.6-38.6-25.1-38.1-47.1a48.6 48.6 0 0 0 21.5 5.9 47.6 47.6 0 0 1-14.7-63.4 134.9 134.9 0 0 0 97.9 49.6 47.6 47.6 0 0 1 81-43.3 92.4 92.4 0 0 0 30.1-11.6 47.6 47.6 0 0 1-20.9 26.3 92 92 0 0 0 27.3-7.5 94.4 94.4 0 0 1-23.7 24.7z"/></symbol></svg>