<?xml version="1.0" encoding="utf-8"?>
<!-- Generator: Adobe Illustrator 24.0.3, SVG Export Plug-In . SVG Version: 6.00 Build 0)  -->
<svg version="1.1" id="Layer_1" xmlns="http://www.w3.org/2000/svg" xmlns:xlink="http://www.w3.org/1999/xlink" x="0px" y="0px"
	 viewBox="0 0 32 32" style="enable-background:new 0 0 32 32;" xml:space="preserve">
<style type="text/css">
	.st0{fill:#83C991;}
</style>
<path id="Path_12" class="st0" d="M23,9l2.2-7.7l-3.1-0.9L19.6,9H6v12.4C6,28,9.7,31.6,16,31.6S26,28,26,21.4V9H23z M18.1,19.1
	c0.7,0,1.2,0.5,1.2,1.2s-0.5,1.2-1.2,1.2c-0.7,0-1.2-0.5-1.2-1.2C16.9,19.6,17.4,19.1,18.1,19.1C18.1,19.1,18.1,19.1,18.1,19.1
	L18.1,19.1z M13.9,19.1c0.7,0,1.2,0.5,1.2,1.2s-0.5,1.2-1.2,1.2c-0.7,0-1.2-0.5-1.2-1.2C12.7,19.6,13.3,19.1,13.9,19.1L13.9,19.1
	L13.9,19.1z M16,27.7c-3.7,0-6.7-2.5-6.7-5.7c0-0.4,0.3-0.8,0.7-0.8c0.4,0,0.8,0.3,0.8,0.7c0,0,0,0,0,0c0,2.3,2.4,4.2,5.2,4.2
	s5.2-1.9,5.2-4.2c0-0.4,0.4-0.7,0.8-0.7c0.4,0,0.7,0.3,0.7,0.7C22.7,25.1,19.7,27.7,16,27.7L16,27.7z"/>
</svg>
