<?xml version="1.0" encoding="utf-8"?>
<!-- Generator: Adobe Illustrator 24.0.3, SVG Export Plug-In . SVG Version: 6.00 Build 0)  -->
<svg version="1.1" id="Layer_1" xmlns="http://www.w3.org/2000/svg" xmlns:xlink="http://www.w3.org/1999/xlink" x="0px" y="0px"
	 viewBox="0 0 64 64" style="enable-background:new 0 0 64 64;" xml:space="preserve">
<style type="text/css">
	.st0{fill:#83C991;}
</style>
<path id="Path_12" class="st0" d="M45.8,18.2l4.4-15.1L44,1.3L39,18.2H12.2v24.5c0,12.9,7.4,20,19.8,20s19.8-7.1,19.8-20V18.2H45.8z
	 M36.1,38.1c1.3,0,2.3,1,2.3,2.3c0,1.3-1,2.3-2.3,2.3c-1.3,0-2.3-1-2.3-2.3C33.8,39.2,34.8,38.1,36.1,38.1
	C36.1,38.1,36.1,38.1,36.1,38.1L36.1,38.1z M27.9,38.1c1.3,0,2.3,1,2.3,2.3c0,1.3-1,2.3-2.3,2.3c-1.3,0-2.3-1-2.3-2.3
	C25.6,39.2,26.6,38.1,27.9,38.1L27.9,38.1L27.9,38.1z M32,55c-7.3,0-13.3-5-13.3-11.2c0-0.8,0.7-1.5,1.5-1.5c0.8,0,1.5,0.7,1.5,1.5
	c0,0,0,0,0,0c0,4.5,4.6,8.2,10.3,8.2s10.3-3.7,10.3-8.2c0-0.8,0.7-1.5,1.5-1.4c0.8,0,1.4,0.7,1.4,1.4C45.3,50,39.3,55,32,55L32,55z"
	/>
</svg>
