<?xml version="1.0" encoding="utf-8"?>
<!-- Generator: Adobe Illustrator 24.0.3, SVG Export Plug-In . SVG Version: 6.00 Build 0)  -->
<svg version="1.1" id="Layer_1" xmlns="http://www.w3.org/2000/svg" xmlns:xlink="http://www.w3.org/1999/xlink" x="0px" y="0px"
	 viewBox="0 0 256 256" style="enable-background:new 0 0 256 256;" xml:space="preserve">
<style type="text/css">
	.st0{fill:#7FCD91;}
</style>
<path id="Path_12" class="st0" d="M184.1,70.9L202,9.4L176.7,2l-20,68.9H47.1v100c0,52.5,30.1,81.6,80.9,81.6s80.9-29.1,80.9-81.6
	v-100H184.1z M144.7,152.3c5.2,0,9.5,4.2,9.5,9.5s-4.2,9.5-9.5,9.5c-5.2,0-9.5-4.2-9.5-9.5C135.2,156.5,139.4,152.3,144.7,152.3
	C144.7,152.3,144.7,152.3,144.7,152.3L144.7,152.3z M111.3,152.3c5.2,0,9.5,4.2,9.5,9.5s-4.2,9.5-9.5,9.5c-5.2,0-9.5-4.2-9.5-9.5
	C101.8,156.5,106.1,152.2,111.3,152.3L111.3,152.3L111.3,152.3z M128,221.1c-29.9,0-54.2-20.4-54.2-45.6c0-3.3,2.7-6,6-6
	c3.3,0,6,2.7,6,6c0,0,0,0,0,0c0,18.5,18.9,33.5,42.2,33.5s42.2-15,42.2-33.5c0.1-3.3,2.9-6,6.2-5.9c3.2,0.1,5.8,2.7,5.9,5.9
	C182.2,200.6,157.9,221.1,128,221.1L128,221.1z"/>
</svg>
