<?xml version="1.0" encoding="utf-8"?>
<!-- Generator: Adobe Illustrator 24.0.3, SVG Export Plug-In . SVG Version: 6.00 Build 0)  -->
<svg version="1.1" id="Layer_1" xmlns="http://www.w3.org/2000/svg" xmlns:xlink="http://www.w3.org/1999/xlink" x="0px" y="0px"
	 viewBox="0 0 16 16" style="enable-background:new 0 0 16 16;" xml:space="preserve">
<style type="text/css">
	.st0{fill:#83C991;}
</style>
<path id="Path_12" class="st0" d="M11.4,4.5l1.1-3.8L11,0.3L9.8,4.5H3v6.1c0,3.2,1.8,5,5,5s5-1.8,5-5V4.5H11.4z M9,9.5
	c0.3,0,0.6,0.3,0.6,0.6S9.3,10.7,9,10.7c-0.3,0-0.6-0.3-0.6-0.6C8.4,9.8,8.7,9.5,9,9.5C9,9.5,9,9.5,9,9.5L9,9.5z M7,9.5
	c0.3,0,0.6,0.3,0.6,0.6S7.3,10.7,7,10.7c-0.3,0-0.6-0.3-0.6-0.6C6.4,9.8,6.7,9.5,7,9.5L7,9.5L7,9.5z M8,13.7c-1.8,0-3.3-1.3-3.3-2.8
	c0-0.2,0.2-0.4,0.4-0.4c0.2,0,0.4,0.2,0.4,0.4c0,0,0,0,0,0C5.4,12.1,6.6,13,8,13s2.6-0.9,2.6-2.1c0-0.2,0.2-0.4,0.4-0.4
	c0.2,0,0.4,0.2,0.4,0.4C11.3,12.5,9.8,13.7,8,13.7L8,13.7z"/>
</svg>
